<?xml version="1.0" standalone="no"?><!DOCTYPE svg PUBLIC "-//W3C//DTD SVG 1.1//EN" "http://www.w3.org/Graphics/SVG/1.1/DTD/svg11.dtd"><svg t="1592732734873" class="icon" viewBox="0 0 1160 1024" version="1.1" xmlns="http://www.w3.org/2000/svg" p-id="2520" xmlns:xlink="http://www.w3.org/1999/xlink" width="54.375" height="48"><defs><style type="text/css"></style></defs><path d="M312.661333 994.798933h531.933867v28.1088H312.661333V994.816z m725.640534-151.261866H116.411733a115.541333 115.541333 0 0 1-115.541333-115.541334V116.48A115.541333 115.541333 0 0 1 116.394667 0.9216h921.890133a115.541333 115.541333 0 0 1 115.541333 115.541333v611.498667a115.541333 115.541333 0 0 1-115.541333 115.5584zM116.411733 29.047467a87.432533 87.432533 0 0 0-87.432533 87.432533v611.498667A87.432533 87.432533 0 0 0 116.394667 815.445333h921.890133a87.432533 87.432533 0 0 0 87.432533-87.4496V116.48a87.432533 87.432533 0 0 0-87.432533-87.432533H116.411733z" fill="#e6e6e6" p-id="2521"></path><path d="M563.165867 829.474133h28.1088v170.376534h-28.1088v-170.376534z m230.536533-170.666666l-110.4896-222.378667h-96.7168l-51.456 113.8688-96.989867-301.397333-166.724266 264.840533-77.312-77.312H14.916267v-28.1088h190.634666l60.7232 60.7232 180.224-286.208 93.047467 289.297067 28.672-63.829334h132.437333l78.984534 159.146667 26.709333-166.997333H1139.541333v28.1088H830.2592l-36.5568 230.263466z" fill="#e6e6e6" p-id="2522"></path></svg>