<?xml version="1.0" standalone="no"?><!DOCTYPE svg PUBLIC "-//W3C//DTD SVG 1.1//EN" "http://www.w3.org/Graphics/SVG/1.1/DTD/svg11.dtd"><svg t="1593504458378" class="icon" viewBox="0 0 1024 1024" version="1.1" xmlns="http://www.w3.org/2000/svg" p-id="2730" xmlns:xlink="http://www.w3.org/1999/xlink" width="48" height="48"><defs><style type="text/css"></style></defs><path d="M40.96 901.12h276.48V471.04l-76.8-51.2-199.68 163.84v317.44z m337.92 0h276.48V471.04l-133.12 107.52-143.36-71.68v394.24zM716.8 419.84v481.28h276.48V424.96l-117.76-148.48L716.8 419.84z" fill="#dbdbdb" p-id="2731"></path><path d="M81.92 465.92l148.48-122.88 286.72 168.96 337.92-312.32 5.12-5.12 56.32 56.32L1008.64 0l-261.12 81.92 61.44 61.44L512 419.84 225.28 256 35.84 409.6c-15.36 10.24-15.36 35.84-5.12 51.2s35.84 15.36 51.2 5.12z m906.24 486.4H35.84c-20.48 0-35.84 15.36-35.84 35.84 0 20.48 15.36 35.84 35.84 35.84h952.32c20.48 0 35.84-15.36 35.84-35.84 0-20.48-15.36-35.84-35.84-35.84z" fill="#dbdbdb" p-id="2732"></path></svg>