<?xml version="1.0" standalone="no"?><!DOCTYPE svg PUBLIC "-//W3C//DTD SVG 1.1//EN" "http://www.w3.org/Graphics/SVG/1.1/DTD/svg11.dtd"><svg t="1588174755415" class="icon" viewBox="0 0 1024 1024" version="1.1" xmlns="http://www.w3.org/2000/svg" p-id="3355" width="250" height="250" xmlns:xlink="http://www.w3.org/1999/xlink"><defs><style type="text/css"></style></defs><path d="M409.6 179.2h204.8a25.6 25.6 0 0 0 0-51.2h-204.8a25.6 25.6 0 0 0 0 51.2zM827.733333 256H196.266667a25.6 25.6 0 0 0 0 51.2H256V874.666667a21.333333 21.333333 0 0 0 21.333333 21.333333h469.333334a21.333333 21.333333 0 0 0 21.333333-21.333333V307.2h59.733333a25.6 25.6 0 0 0 0-51.2zM469.333333 704a21.333333 21.333333 0 0 1-42.666666 0V448a21.333333 21.333333 0 0 1 42.666666 0z m128 0a21.333333 21.333333 0 0 1-42.666666 0V448a21.333333 21.333333 0 0 1 42.666666 0z" fill="#BFCBD9" p-id="3356"></path></svg>