<?xml version="1.0" standalone="no"?><!DOCTYPE svg PUBLIC "-//W3C//DTD SVG 1.1//EN" "http://www.w3.org/Graphics/SVG/1.1/DTD/svg11.dtd"><svg t="1588174000855" class="icon" viewBox="0 0 1024 1024" version="1.1" xmlns="http://www.w3.org/2000/svg" p-id="2192" width="225" height="225" xmlns:xlink="http://www.w3.org/1999/xlink"><defs><style type="text/css"></style></defs><path d="M384 134.890667L184.085333 214.826667A21.312 21.312 0 0 0 170.666667 234.666667v597.333333a21.333333 21.333333 0 0 0 29.248 19.818667L384 778.176zM597.333333 239.658667l-170.666666-102.4v647.082666l170.666666 102.4V239.658667zM843.946667 174.336a21.333333 21.333333 0 0 0-19.861334-2.133333L640 245.781333v643.306667l199.914667-79.957333A21.312 21.312 0 0 0 853.333333 789.333333V192a21.312 21.312 0 0 0-9.386666-17.664z" fill="#BFCBD9" p-id="2193"></path></svg>